<svg xmlns="http://www.w3.org/2000/svg" viewBox="0 0 512 512">
  <defs>
    <linearGradient id="grad" x1="0%" y1="0%" x2="100%" y2="100%">
      <stop offset="0%" style="stop-color:#1ed760"/>
      <stop offset="100%" style="stop-color:#1db954"/>
    </linearGradient>
  </defs>
  <circle cx="256" cy="256" r="256" fill="url(#grad)"/>
  <path fill="#121212" d="M256 128c-70.7 0-128 57.3-128 128v64c0 35.3 28.7 64 64 64s64-28.7 64-64v-64c0-17.7 14.3-32 32-32s32 14.3 32 32v64c0 35.3 28.7 64 64 64s64-28.7 64-64v-64c0-70.7-57.3-128-128-128zm-64 128v64c0 17.7-14.3 32-32 32s-32-14.3-32-32v-64c0-53 43-96 96-96 13.3 0 26 2.7 37.5 7.5C242.3 175.2 224 202.2 224 233.3V256c0 5.5-.3 10.9-.8 16.2-8.5-5.7-18.8-8.9-29.9-8.9-9.8 0-19.1 2.5-27.2 6.9 2-13.4 3.1-27.3 3.1-41.5v-2.7zm160 96c-17.7 0-32-14.3-32-32v-64c0-31.1-18.3-58.1-44.5-70.6C287 175 298.7 169 312 166.5c9.3-1.7 18.9-2.5 28.8-2.5 53 0 96 43 96 96v64c0 17.7-14.3 32-32 32z"/>
  <circle cx="192" cy="336" r="24" fill="#1db954"/>
  <circle cx="384" cy="336" r="24" fill="#1db954"/>
</svg>
